solid OpenSCAD_Model
  facet normal -1 0 0
    outer loop
      vertex -8.2 -12.95 5
      vertex -8.2 -9.5 12
      vertex -8.2 -9.5 5
    endloop
  endfacet
  facet normal -1 -0 0
    outer loop
      vertex -8.2 -9.5 12
      vertex -8.2 -12.95 5
      vertex -8.2 -12.95 12
    endloop
  endfacet
  facet normal 0 0 1
    outer loop
      vertex 4.075 -12.95 12
      vertex 8.2 -9.5 12
      vertex 4.7 -6.05 12
    endloop
  endfacet
  facet normal 0 0 1
    outer loop
      vertex 8.2 -9.5 12
      vertex 4.075 -12.95 12
      vertex 8.2 -12.95 12
    endloop
  endfacet
  facet normal 0 0 1
    outer loop
      vertex 4.075 -12.95 12
      vertex -4.075 -12.95 12
      vertex 4.075 -15 12
    endloop
  endfacet
  facet normal 0 0 1
    outer loop
      vertex 4.7 -6.05 12
      vertex -4.075 -12.95 12
      vertex 4.075 -12.95 12
    endloop
  endfacet
  facet normal -0 0 1
    outer loop
      vertex -4.7 -6.05 12
      vertex -4.075 -12.95 12
      vertex 4.7 -6.05 12
    endloop
  endfacet
  facet normal -0 0 1
    outer loop
      vertex -8.2 -9.5 12
      vertex -4.075 -12.95 12
      vertex -4.7 -6.05 12
    endloop
  endfacet
  facet normal 0 0 1
    outer loop
      vertex -8.2 -9.5 12
      vertex -8.2 -12.95 12
      vertex -4.075 -12.95 12
    endloop
  endfacet
  facet normal 0 0 1
    outer loop
      vertex 4.075 -15 12
      vertex -4.075 -12.95 12
      vertex -4.075 -15 12
    endloop
  endfacet
  facet normal 1 -0 0
    outer loop
      vertex 8.2 -12.95 12
      vertex 8.2 -9.5 5
      vertex 8.2 -9.5 12
    endloop
  endfacet
  facet normal 1 0 0
    outer loop
      vertex 8.2 -9.5 5
      vertex 8.2 -12.95 12
      vertex 8.2 -12.95 5
    endloop
  endfacet
  facet normal 0 0 -1
    outer loop
      vertex 3.16099 -1.825 0
      vertex 15 -3.33067e-15 0
      vertex 15 -13 0
    endloop
  endfacet
  facet normal 0 -0 -1
    outer loop
      vertex 3.65 0 0
      vertex 15 -3.33067e-15 0
      vertex 3.16099 -1.825 0
    endloop
  endfacet
  facet normal 0 0 -1
    outer loop
      vertex 13 -15 0
      vertex 15 -13 0
      vertex 14.8478 -13.7654 0
    endloop
  endfacet
  facet normal 0 0 -1
    outer loop
      vertex 3.16099 1.825 0
      vertex 15 4.075 0
      vertex 3.65 0 0
    endloop
  endfacet
  facet normal 0 0 -1
    outer loop
      vertex 13 -15 0
      vertex 14.8478 -13.7654 0
      vertex 14.4142 -14.4142 0
    endloop
  endfacet
  facet normal 0 0 -1
    outer loop
      vertex 1.825 3.16099 0
      vertex 15 4.075 0
      vertex 3.16099 1.825 0
    endloop
  endfacet
  facet normal 0 0 -1
    outer loop
      vertex 13 -15 0
      vertex 14.4142 -14.4142 0
      vertex 13.7654 -14.8478 0
    endloop
  endfacet
  facet normal 0 0 -1
    outer loop
      vertex 15 4.075 0
      vertex 13 15 0
      vertex 15 13 0
    endloop
  endfacet
  facet normal -0 0 -1
    outer loop
      vertex 15 -13 0
      vertex 13 -15 0
      vertex 3.16099 -1.825 0
    endloop
  endfacet
  facet normal 0 0 -1
    outer loop
      vertex 15 13 0
      vertex 13 15 0
      vertex 14.8478 13.7654 0
    endloop
  endfacet
  facet normal 0 0 -1
    outer loop
      vertex 14.8478 13.7654 0
      vertex 13 15 0
      vertex 14.4142 14.4142 0
    endloop
  endfacet
  facet normal 0 0 -1
    outer loop
      vertex 15 -3.33067e-15 0
      vertex 3.65 0 0
      vertex 15 4.075 0
    endloop
  endfacet
  facet normal 0 0 -1
    outer loop
      vertex 13 -15 0
      vertex 1.825 -3.16099 0
      vertex 3.16099 -1.825 0
    endloop
  endfacet
  facet normal 0 0 -1
    outer loop
      vertex 13 -15 0
      vertex 0 -3.65 0
      vertex 1.825 -3.16099 0
    endloop
  endfacet
  facet normal 0 0 -1
    outer loop
      vertex -13 -15 0
      vertex 0 -3.65 0
      vertex 13 -15 0
    endloop
  endfacet
  facet normal -0 0 -1
    outer loop
      vertex 0 -3.65 0
      vertex -13 -15 0
      vertex -1.825 -3.16099 0
    endloop
  endfacet
  facet normal 0 0 -1
    outer loop
      vertex -15 -4.075 0
      vertex -1.825 -3.16099 0
      vertex -13 -15 0
    endloop
  endfacet
  facet normal -0 0 -1
    outer loop
      vertex -1.825 -3.16099 0
      vertex -15 -4.075 0
      vertex -3.16099 -1.825 0
    endloop
  endfacet
  facet normal -0 0 -1
    outer loop
      vertex -3.16099 -1.825 0
      vertex -15 -4.075 0
      vertex -3.65 0 0
    endloop
  endfacet
  facet normal 0 0 -1
    outer loop
      vertex -15 3.33067e-15 0
      vertex -3.65 0 0
      vertex -15 -4.075 0
    endloop
  endfacet
  facet normal 0 0 -1
    outer loop
      vertex -15 -13 0
      vertex -13 -15 0
      vertex -13.7654 -14.8478 0
    endloop
  endfacet
  facet normal 0 0 -1
    outer loop
      vertex -3.65 0 0
      vertex -15 13 0
      vertex -4.075 15 0
    endloop
  endfacet
  facet normal 0 0 -1
    outer loop
      vertex -15 -13 0
      vertex -13.7654 -14.8478 0
      vertex -14.4142 -14.4142 0
    endloop
  endfacet
  facet normal -0 0 -1
    outer loop
      vertex -4.075 15 0
      vertex -15 13 0
      vertex -13 15 0
    endloop
  endfacet
  facet normal 0 0 -1
    outer loop
      vertex -15 -13 0
      vertex -14.4142 -14.4142 0
      vertex -14.8478 -13.7654 0
    endloop
  endfacet
  facet normal 0 0 -1
    outer loop
      vertex -15 13 0
      vertex -3.65 0 0
      vertex -15 3.33067e-15 0
    endloop
  endfacet
  facet normal 0 0 -1
    outer loop
      vertex -13 -15 0
      vertex -15 -13 0
      vertex -15 -4.075 0
    endloop
  endfacet
  facet normal 0 0 -1
    outer loop
      vertex -13 15 0
      vertex -15 13 0
      vertex -13.7654 14.8478 0
    endloop
  endfacet
  facet normal 0 0 -1
    outer loop
      vertex -13.7654 14.8478 0
      vertex -15 13 0
      vertex -14.4142 14.4142 0
    endloop
  endfacet
  facet normal 0 0 -1
    outer loop
      vertex -14.4142 14.4142 0
      vertex -15 13 0
      vertex -14.8478 13.7654 0
    endloop
  endfacet
  facet normal 0 0 -1
    outer loop
      vertex 14.4142 14.4142 0
      vertex 13 15 0
      vertex 13.7654 14.8478 0
    endloop
  endfacet
  facet normal -0 0 -1
    outer loop
      vertex 15 4.075 0
      vertex 1.825 3.16099 0
      vertex 13 15 0
    endloop
  endfacet
  facet normal 0 0 -1
    outer loop
      vertex 1.825 3.16099 0
      vertex 1.83697e-15 15 0
      vertex 13 15 0
    endloop
  endfacet
  facet normal 0 0 -1
    outer loop
      vertex 0 3.65 0
      vertex 1.83697e-15 15 0
      vertex 1.825 3.16099 0
    endloop
  endfacet
  facet normal 0 0 -1
    outer loop
      vertex -4.075 15 0
      vertex 0 3.65 0
      vertex -1.825 3.16099 0
    endloop
  endfacet
  facet normal 0 0 -1
    outer loop
      vertex -4.075 15 0
      vertex -1.825 3.16099 0
      vertex -3.16099 1.825 0
    endloop
  endfacet
  facet normal 0 0 -1
    outer loop
      vertex -4.075 15 0
      vertex -3.16099 1.825 0
      vertex -3.65 0 0
    endloop
  endfacet
  facet normal 0 0 -1
    outer loop
      vertex 0 3.65 0
      vertex -4.075 15 0
      vertex 1.83697e-15 15 0
    endloop
  endfacet
  facet normal 0 -1 0
    outer loop
      vertex -8.2 -12.95 5
      vertex -4.075 -12.95 12
      vertex -8.2 -12.95 12
    endloop
  endfacet
  facet normal 0 -1 -0
    outer loop
      vertex -4.075 -12.95 12
      vertex -8.2 -12.95 5
      vertex -4.075 -12.95 5
    endloop
  endfacet
  facet normal 0 -1 0
    outer loop
      vertex 4.075 -12.95 5
      vertex 8.2 -12.95 12
      vertex 4.075 -12.95 12
    endloop
  endfacet
  facet normal 0 -1 -0
    outer loop
      vertex 8.2 -12.95 12
      vertex 4.075 -12.95 5
      vertex 8.2 -12.95 5
    endloop
  endfacet
  facet normal 0.702001 0.712176 -0
    outer loop
      vertex 8.2 -9.5 5
      vertex 4.7 -6.05 12
      vertex 8.2 -9.5 12
    endloop
  endfacet
  facet normal 0.702001 0.712176 0
    outer loop
      vertex 4.7 -6.05 12
      vertex 8.2 -9.5 5
      vertex 4.7 -6.05 5
    endloop
  endfacet
  facet normal -0.702001 0.712176 0
    outer loop
      vertex -4.7 -6.05 5
      vertex -8.2 -9.5 12
      vertex -4.7 -6.05 12
    endloop
  endfacet
  facet normal -0.702001 0.712176 0
    outer loop
      vertex -8.2 -9.5 12
      vertex -4.7 -6.05 5
      vertex -8.2 -9.5 5
    endloop
  endfacet
  facet normal 0 1 -0
    outer loop
      vertex 4.7 -6.05 5
      vertex -4.7 -6.05 12
      vertex 4.7 -6.05 12
    endloop
  endfacet
  facet normal 0 1 0
    outer loop
      vertex -4.7 -6.05 12
      vertex 4.7 -6.05 5
      vertex -4.7 -6.05 5
    endloop
  endfacet
  facet normal -1 0 0
    outer loop
      vertex -4.075 -15 5
      vertex -4.075 -12.95 12
      vertex -4.075 -12.95 5
    endloop
  endfacet
  facet normal -1 -0 0
    outer loop
      vertex -4.075 -12.95 12
      vertex -4.075 -15 5
      vertex -4.075 -15 12
    endloop
  endfacet
  facet normal 1 -0 0
    outer loop
      vertex 4.075 -15 12
      vertex 4.075 -12.95 5
      vertex 4.075 -12.95 12
    endloop
  endfacet
  facet normal 1 0 0
    outer loop
      vertex 4.075 -12.95 5
      vertex 4.075 -15 12
      vertex 4.075 -15 5
    endloop
  endfacet
  facet normal 0 -1 0
    outer loop
      vertex -13 -15 0
      vertex -4.075 -15 5
      vertex -13 -15 5
    endloop
  endfacet
  facet normal 0 -1 -0
    outer loop
      vertex -4.075 -15 5
      vertex -13 -15 0
      vertex 4.075 -15 5
    endloop
  endfacet
  facet normal 0 -1 0
    outer loop
      vertex 13 -15 0
      vertex 4.075 -15 5
      vertex -13 -15 0
    endloop
  endfacet
  facet normal 0 -1 0
    outer loop
      vertex 4.075 -15 5
      vertex 13 -15 0
      vertex 13 -15 5
    endloop
  endfacet
  facet normal 0 -1 0
    outer loop
      vertex -4.075 -15 5
      vertex 4.075 -15 12
      vertex -4.075 -15 12
    endloop
  endfacet
  facet normal 0 -1 -0
    outer loop
      vertex 4.075 -15 12
      vertex -4.075 -15 5
      vertex 4.075 -15 5
    endloop
  endfacet
  facet normal 0 -1 0
    outer loop
      vertex 9.5 -8.2 5
      vertex 12.95 -8.2 12
      vertex 9.5 -8.2 12
    endloop
  endfacet
  facet normal 0 -1 -0
    outer loop
      vertex 12.95 -8.2 12
      vertex 9.5 -8.2 5
      vertex 12.95 -8.2 5
    endloop
  endfacet
  facet normal 0 0 1
    outer loop
      vertex 6.05 -4.7 12
      vertex 12.95 -4.075 12
      vertex 6.05 4.7 12
    endloop
  endfacet
  facet normal 0 0 1
    outer loop
      vertex 12.95 -4.075 12
      vertex 6.05 -4.7 12
      vertex 9.5 -8.2 12
    endloop
  endfacet
  facet normal -0 0 1
    outer loop
      vertex 9.5 8.2 12
      vertex 12.95 4.075 12
      vertex 12.95 8.2 12
    endloop
  endfacet
  facet normal -0 0 1
    outer loop
      vertex 6.05 4.7 12
      vertex 12.95 4.075 12
      vertex 9.5 8.2 12
    endloop
  endfacet
  facet normal 0 0 1
    outer loop
      vertex 12.95 4.075 12
      vertex 6.05 4.7 12
      vertex 12.95 -4.075 12
    endloop
  endfacet
  facet normal 0 0 1
    outer loop
      vertex 12.95 -4.075 12
      vertex 9.5 -8.2 12
      vertex 12.95 -8.2 12
    endloop
  endfacet
  facet normal -0 0 1
    outer loop
      vertex 12.95 4.075 12
      vertex 15 -4.075 12
      vertex 15 4.075 12
    endloop
  endfacet
  facet normal 0 0 1
    outer loop
      vertex 15 -4.075 12
      vertex 12.95 4.075 12
      vertex 12.95 -4.075 12
    endloop
  endfacet
  facet normal 0 1 -0
    outer loop
      vertex 12.95 8.2 5
      vertex 9.5 8.2 12
      vertex 12.95 8.2 12
    endloop
  endfacet
  facet normal 0 1 0
    outer loop
      vertex 9.5 8.2 12
      vertex 12.95 8.2 5
      vertex 9.5 8.2 5
    endloop
  endfacet
  facet normal 1 -0 0
    outer loop
      vertex 12.95 -8.2 12
      vertex 12.95 -4.075 5
      vertex 12.95 -4.075 12
    endloop
  endfacet
  facet normal 1 0 0
    outer loop
      vertex 12.95 -4.075 5
      vertex 12.95 -8.2 12
      vertex 12.95 -8.2 5
    endloop
  endfacet
  facet normal 1 -0 0
    outer loop
      vertex 12.95 4.075 12
      vertex 12.95 8.2 5
      vertex 12.95 8.2 12
    endloop
  endfacet
  facet normal 1 0 0
    outer loop
      vertex 12.95 8.2 5
      vertex 12.95 4.075 12
      vertex 12.95 4.075 5
    endloop
  endfacet
  facet normal -0.712176 0.702001 0
    outer loop
      vertex 6.05 4.7 5
      vertex 9.5 8.2 12
      vertex 9.5 8.2 5
    endloop
  endfacet
  facet normal -0.712176 0.702001 0
    outer loop
      vertex 9.5 8.2 12
      vertex 6.05 4.7 5
      vertex 6.05 4.7 12
    endloop
  endfacet
  facet normal -0.712176 -0.702001 0
    outer loop
      vertex 9.5 -8.2 5
      vertex 6.05 -4.7 12
      vertex 6.05 -4.7 5
    endloop
  endfacet
  facet normal -0.712176 -0.702001 0
    outer loop
      vertex 6.05 -4.7 12
      vertex 9.5 -8.2 5
      vertex 9.5 -8.2 12
    endloop
  endfacet
  facet normal -1 0 0
    outer loop
      vertex 6.05 -4.7 5
      vertex 6.05 4.7 12
      vertex 6.05 4.7 5
    endloop
  endfacet
  facet normal -1 -0 0
    outer loop
      vertex 6.05 4.7 12
      vertex 6.05 -4.7 5
      vertex 6.05 -4.7 12
    endloop
  endfacet
  facet normal 0 -1 0
    outer loop
      vertex 12.95 -4.075 5
      vertex 15 -4.075 12
      vertex 12.95 -4.075 12
    endloop
  endfacet
  facet normal 0 -1 -0
    outer loop
      vertex 15 -4.075 12
      vertex 12.95 -4.075 5
      vertex 15 -4.075 5
    endloop
  endfacet
  facet normal 0 1 -0
    outer loop
      vertex 15 4.075 5
      vertex 12.95 4.075 12
      vertex 15 4.075 12
    endloop
  endfacet
  facet normal 0 1 0
    outer loop
      vertex 12.95 4.075 12
      vertex 15 4.075 5
      vertex 12.95 4.075 5
    endloop
  endfacet
  facet normal 0 0 0
    outer loop
      vertex 15 4.075 5
      vertex 15 4.075 12
      vertex 15 4.075 0
    endloop
  endfacet
  facet normal 1 0 0
    outer loop
      vertex 15 4.075 12
      vertex 15 -3.33067e-15 5
      vertex 15 4.075 0
    endloop
  endfacet
  facet normal 1 -0 0
    outer loop
      vertex 15 -4.075 12
      vertex 15 -3.33067e-15 5
      vertex 15 4.075 12
    endloop
  endfacet
  facet normal 1 0 0
    outer loop
      vertex 15 -3.33067e-15 5
      vertex 15 -4.075 12
      vertex 15 -4.075 5
    endloop
  endfacet
  facet normal 1 0 0
    outer loop
      vertex 15 4.075 0
      vertex 15 -3.33067e-15 5
      vertex 15 -3.33067e-15 0
    endloop
  endfacet
  facet normal 1 -0 0
    outer loop
      vertex 8.2 9.5 12
      vertex 8.2 12.95 5
      vertex 8.2 12.95 12
    endloop
  endfacet
  facet normal 1 0 0
    outer loop
      vertex 8.2 12.95 5
      vertex 8.2 9.5 12
      vertex 8.2 9.5 5
    endloop
  endfacet
  facet normal 0 0 1
    outer loop
      vertex 4.075 15 12
      vertex -4.075 15 12
      vertex 4.075 12.95 12
    endloop
  endfacet
  facet normal -0 0 1
    outer loop
      vertex 4.075 12.95 12
      vertex 8.2 9.5 12
      vertex 8.2 12.95 12
    endloop
  endfacet
  facet normal 0 0 1
    outer loop
      vertex 8.2 9.5 12
      vertex 4.075 12.95 12
      vertex 4.7 6.05 12
    endloop
  endfacet
  facet normal 0 0 1
    outer loop
      vertex -4.075 12.95 12
      vertex 4.075 12.95 12
      vertex -4.075 15 12
    endloop
  endfacet
  facet normal 0 0 1
    outer loop
      vertex 4.075 12.95 12
      vertex -4.075 12.95 12
      vertex 4.7 6.05 12
    endloop
  endfacet
  facet normal 0 0 1
    outer loop
      vertex -4.075 12.95 12
      vertex -4.7 6.05 12
      vertex 4.7 6.05 12
    endloop
  endfacet
  facet normal 0 0 1
    outer loop
      vertex -4.075 12.95 12
      vertex -8.2 9.5 12
      vertex -4.7 6.05 12
    endloop
  endfacet
  facet normal -0 0 1
    outer loop
      vertex -8.2 12.95 12
      vertex -8.2 9.5 12
      vertex -4.075 12.95 12
    endloop
  endfacet
  facet normal -1 0 0
    outer loop
      vertex -8.2 9.5 5
      vertex -8.2 12.95 12
      vertex -8.2 12.95 5
    endloop
  endfacet
  facet normal -1 -0 0
    outer loop
      vertex -8.2 12.95 12
      vertex -8.2 9.5 5
      vertex -8.2 9.5 12
    endloop
  endfacet
  facet normal 0 1 -0
    outer loop
      vertex 8.2 12.95 5
      vertex 4.075 12.95 12
      vertex 8.2 12.95 12
    endloop
  endfacet
  facet normal 0 1 0
    outer loop
      vertex 4.075 12.95 12
      vertex 8.2 12.95 5
      vertex 4.075 12.95 5
    endloop
  endfacet
  facet normal 0 1 -0
    outer loop
      vertex -4.075 12.95 5
      vertex -8.2 12.95 12
      vertex -4.075 12.95 12
    endloop
  endfacet
  facet normal 0 1 0
    outer loop
      vertex -8.2 12.95 12
      vertex -4.075 12.95 5
      vertex -8.2 12.95 5
    endloop
  endfacet
  facet normal -0.702001 -0.712176 0
    outer loop
      vertex -8.2 9.5 5
      vertex -4.7 6.05 12
      vertex -8.2 9.5 12
    endloop
  endfacet
  facet normal -0.702001 -0.712176 -0
    outer loop
      vertex -4.7 6.05 12
      vertex -8.2 9.5 5
      vertex -4.7 6.05 5
    endloop
  endfacet
  facet normal 0.702001 -0.712176 0
    outer loop
      vertex 4.7 6.05 5
      vertex 8.2 9.5 12
      vertex 4.7 6.05 12
    endloop
  endfacet
  facet normal 0.702001 -0.712176 0
    outer loop
      vertex 8.2 9.5 12
      vertex 4.7 6.05 5
      vertex 8.2 9.5 5
    endloop
  endfacet
  facet normal 0 -1 0
    outer loop
      vertex -4.7 6.05 5
      vertex 4.7 6.05 12
      vertex -4.7 6.05 12
    endloop
  endfacet
  facet normal 0 -1 -0
    outer loop
      vertex 4.7 6.05 12
      vertex -4.7 6.05 5
      vertex 4.7 6.05 5
    endloop
  endfacet
  facet normal 1 -0 0
    outer loop
      vertex 4.075 12.95 12
      vertex 4.075 15 5
      vertex 4.075 15 12
    endloop
  endfacet
  facet normal 1 0 0
    outer loop
      vertex 4.075 15 5
      vertex 4.075 12.95 12
      vertex 4.075 12.95 5
    endloop
  endfacet
  facet normal -1 0 0
    outer loop
      vertex -4.075 12.95 5
      vertex -4.075 15 12
      vertex -4.075 15 5
    endloop
  endfacet
  facet normal -1 -0 0
    outer loop
      vertex -4.075 15 12
      vertex -4.075 12.95 5
      vertex -4.075 12.95 12
    endloop
  endfacet
  facet normal 0 0 0
    outer loop
      vertex -4.075 15 12
      vertex -4.075 15 0
      vertex -4.075 15 5
    endloop
  endfacet
  facet normal 0 1 0
    outer loop
      vertex 1.83697e-15 15 5
      vertex 4.075 15 12
      vertex 4.075 15 5
    endloop
  endfacet
  facet normal 0 1 0
    outer loop
      vertex 4.075 15 12
      vertex 1.83697e-15 15 5
      vertex -4.075 15 12
    endloop
  endfacet
  facet normal 0 1 0
    outer loop
      vertex -4.075 15 0
      vertex 1.83697e-15 15 5
      vertex 1.83697e-15 15 0
    endloop
  endfacet
  facet normal 0 1 0
    outer loop
      vertex 1.83697e-15 15 5
      vertex -4.075 15 0
      vertex -4.075 15 12
    endloop
  endfacet
  facet normal 0 1 -0
    outer loop
      vertex -9.5 8.2 5
      vertex -12.95 8.2 12
      vertex -9.5 8.2 12
    endloop
  endfacet
  facet normal 0 1 0
    outer loop
      vertex -12.95 8.2 12
      vertex -9.5 8.2 5
      vertex -12.95 8.2 5
    endloop
  endfacet
  facet normal -0 0 1
    outer loop
      vertex -15 4.075 12
      vertex -12.95 -4.075 12
      vertex -12.95 4.075 12
    endloop
  endfacet
  facet normal 0 0 1
    outer loop
      vertex -12.95 -4.075 12
      vertex -15 4.075 12
      vertex -15 -4.075 12
    endloop
  endfacet
  facet normal 0 0 1
    outer loop
      vertex -9.5 8.2 12
      vertex -12.95 4.075 12
      vertex -9.5 -8.2 12
    endloop
  endfacet
  facet normal 0 0 1
    outer loop
      vertex -9.5 8.2 12
      vertex -12.95 8.2 12
      vertex -12.95 4.075 12
    endloop
  endfacet
  facet normal -0 0 1
    outer loop
      vertex -12.95 -4.075 12
      vertex -9.5 -8.2 12
      vertex -12.95 4.075 12
    endloop
  endfacet
  facet normal 0 0 1
    outer loop
      vertex -12.95 -8.2 12
      vertex -9.5 -8.2 12
      vertex -12.95 -4.075 12
    endloop
  endfacet
  facet normal 0 0 1
    outer loop
      vertex -9.5 8.2 12
      vertex -6.05 -4.7 12
      vertex -6.05 4.7 12
    endloop
  endfacet
  facet normal 0 0 1
    outer loop
      vertex -6.05 -4.7 12
      vertex -9.5 8.2 12
      vertex -9.5 -8.2 12
    endloop
  endfacet
  facet normal 0 -1 0
    outer loop
      vertex -12.95 -8.2 5
      vertex -9.5 -8.2 12
      vertex -12.95 -8.2 12
    endloop
  endfacet
  facet normal 0 -1 -0
    outer loop
      vertex -9.5 -8.2 12
      vertex -12.95 -8.2 5
      vertex -9.5 -8.2 5
    endloop
  endfacet
  facet normal -1 0 0
    outer loop
      vertex -12.95 4.075 5
      vertex -12.95 8.2 12
      vertex -12.95 8.2 5
    endloop
  endfacet
  facet normal -1 -0 0
    outer loop
      vertex -12.95 8.2 12
      vertex -12.95 4.075 5
      vertex -12.95 4.075 12
    endloop
  endfacet
  facet normal -1 0 0
    outer loop
      vertex -12.95 -8.2 5
      vertex -12.95 -4.075 12
      vertex -12.95 -4.075 5
    endloop
  endfacet
  facet normal -1 -0 0
    outer loop
      vertex -12.95 -4.075 12
      vertex -12.95 -8.2 5
      vertex -12.95 -8.2 12
    endloop
  endfacet
  facet normal 0.712176 -0.702001 0
    outer loop
      vertex -9.5 -8.2 12
      vertex -6.05 -4.7 5
      vertex -6.05 -4.7 12
    endloop
  endfacet
  facet normal 0.712176 -0.702001 0
    outer loop
      vertex -6.05 -4.7 5
      vertex -9.5 -8.2 12
      vertex -9.5 -8.2 5
    endloop
  endfacet
  facet normal 0.712176 0.702001 0
    outer loop
      vertex -6.05 4.7 12
      vertex -9.5 8.2 5
      vertex -9.5 8.2 12
    endloop
  endfacet
  facet normal 0.712176 0.702001 0
    outer loop
      vertex -9.5 8.2 5
      vertex -6.05 4.7 12
      vertex -6.05 4.7 5
    endloop
  endfacet
  facet normal 1 -0 0
    outer loop
      vertex -6.05 -4.7 12
      vertex -6.05 4.7 5
      vertex -6.05 4.7 12
    endloop
  endfacet
  facet normal 1 0 0
    outer loop
      vertex -6.05 4.7 5
      vertex -6.05 -4.7 12
      vertex -6.05 -4.7 5
    endloop
  endfacet
  facet normal 0 1 -0
    outer loop
      vertex -12.95 4.075 5
      vertex -15 4.075 12
      vertex -12.95 4.075 12
    endloop
  endfacet
  facet normal 0 1 0
    outer loop
      vertex -15 4.075 12
      vertex -12.95 4.075 5
      vertex -15 4.075 5
    endloop
  endfacet
  facet normal 0 -1 0
    outer loop
      vertex -15 -4.075 5
      vertex -12.95 -4.075 12
      vertex -15 -4.075 12
    endloop
  endfacet
  facet normal 0 -1 -0
    outer loop
      vertex -12.95 -4.075 12
      vertex -15 -4.075 5
      vertex -12.95 -4.075 5
    endloop
  endfacet
  facet normal 0 0 0
    outer loop
      vertex -15 -4.075 5
      vertex -15 -4.075 12
      vertex -15 -4.075 0
    endloop
  endfacet
  facet normal -1 0 0
    outer loop
      vertex -15 3.33067e-15 0
      vertex -15 -4.075 0
      vertex -15 3.33067e-15 5
    endloop
  endfacet
  facet normal -1 0 0
    outer loop
      vertex -15 3.33067e-15 5
      vertex -15 4.075 12
      vertex -15 4.075 5
    endloop
  endfacet
  facet normal -1 0 0
    outer loop
      vertex -15 -4.075 12
      vertex -15 3.33067e-15 5
      vertex -15 -4.075 0
    endloop
  endfacet
  facet normal -1 0 0
    outer loop
      vertex -15 3.33067e-15 5
      vertex -15 -4.075 12
      vertex -15 4.075 12
    endloop
  endfacet
  facet normal 1 -0 0
    outer loop
      vertex 15 -13 5
      vertex 15 -3.33067e-15 0
      vertex 15 -3.33067e-15 5
    endloop
  endfacet
  facet normal 1 0 0
    outer loop
      vertex 15 -3.33067e-15 0
      vertex 15 -13 5
      vertex 15 -13 0
    endloop
  endfacet
  facet normal 1 -0 0
    outer loop
      vertex 15 4.075 5
      vertex 15 13 0
      vertex 15 13 5
    endloop
  endfacet
  facet normal 1 0 0
    outer loop
      vertex 15 13 0
      vertex 15 4.075 5
      vertex 15 4.075 0
    endloop
  endfacet
  facet normal -0.980785 -0.195091 0
    outer loop
      vertex -14.8478 -13.7654 0
      vertex -15 -13 5
      vertex -15 -13 0
    endloop
  endfacet
  facet normal -0.980785 -0.195091 0
    outer loop
      vertex -15 -13 5
      vertex -14.8478 -13.7654 0
      vertex -14.8478 -13.7654 5
    endloop
  endfacet
  facet normal 0.980785 -0.195091 0
    outer loop
      vertex 14.8478 -13.7654 5
      vertex 15 -13 0
      vertex 15 -13 5
    endloop
  endfacet
  facet normal 0.980785 -0.195091 0
    outer loop
      vertex 15 -13 0
      vertex 14.8478 -13.7654 5
      vertex 14.8478 -13.7654 0
    endloop
  endfacet
  facet normal -0.55557 0.83147 0
    outer loop
      vertex -13.7654 14.8478 0
      vertex -14.4142 14.4142 5
      vertex -13.7654 14.8478 5
    endloop
  endfacet
  facet normal -0.55557 0.83147 0
    outer loop
      vertex -14.4142 14.4142 5
      vertex -13.7654 14.8478 0
      vertex -14.4142 14.4142 0
    endloop
  endfacet
  facet normal -1 0 0
    outer loop
      vertex -15 -13 0
      vertex -15 -4.075 5
      vertex -15 -4.075 0
    endloop
  endfacet
  facet normal -1 -0 0
    outer loop
      vertex -15 -4.075 5
      vertex -15 -13 0
      vertex -15 -13 5
    endloop
  endfacet
  facet normal -1 0 0
    outer loop
      vertex -15 3.33067e-15 0
      vertex -15 13 5
      vertex -15 13 0
    endloop
  endfacet
  facet normal -1 -0 0
    outer loop
      vertex -15 13 5
      vertex -15 3.33067e-15 0
      vertex -15 3.33067e-15 5
    endloop
  endfacet
  facet normal 0 0 1
    outer loop
      vertex -4.075 15 5
      vertex -8.2 12.95 5
      vertex -4.075 12.95 5
    endloop
  endfacet
  facet normal 0 0 1
    outer loop
      vertex -8.2 12.95 5
      vertex -9.5 8.2 5
      vertex -8.2 9.5 5
    endloop
  endfacet
  facet normal 0 0 1
    outer loop
      vertex -8.2 12.95 5
      vertex -12.95 8.2 5
      vertex -9.5 8.2 5
    endloop
  endfacet
  facet normal -0 0 1
    outer loop
      vertex -13 15 5
      vertex -8.2 12.95 5
      vertex -4.075 15 5
    endloop
  endfacet
  facet normal 0 0 1
    outer loop
      vertex -13 15 5
      vertex -12.95 8.2 5
      vertex -8.2 12.95 5
    endloop
  endfacet
  facet normal -0 0 1
    outer loop
      vertex -15 13 5
      vertex -12.95 8.2 5
      vertex -13 15 5
    endloop
  endfacet
  facet normal 0 0 1
    outer loop
      vertex -15 13 5
      vertex -13 15 5
      vertex -13.7654 14.8478 5
    endloop
  endfacet
  facet normal 0 0 1
    outer loop
      vertex -15 13 5
      vertex -13.7654 14.8478 5
      vertex -14.4142 14.4142 5
    endloop
  endfacet
  facet normal 0 0 1
    outer loop
      vertex -15 13 5
      vertex -14.4142 14.4142 5
      vertex -14.8478 13.7654 5
    endloop
  endfacet
  facet normal 0 0 1
    outer loop
      vertex -15 4.075 5
      vertex -12.95 8.2 5
      vertex -15 13 5
    endloop
  endfacet
  facet normal 0 0 1
    outer loop
      vertex -12.95 8.2 5
      vertex -15 4.075 5
      vertex -12.95 4.075 5
    endloop
  endfacet
  facet normal 0 0 1
    outer loop
      vertex -3.16099 -1.825 5
      vertex -6.05 -4.7 5
      vertex -4.7 -6.05 5
    endloop
  endfacet
  facet normal 0 0 1
    outer loop
      vertex -6.05 -4.7 5
      vertex -8.2 -9.5 5
      vertex -4.7 -6.05 5
    endloop
  endfacet
  facet normal -0 0 1
    outer loop
      vertex -9.5 -8.2 5
      vertex -8.2 -9.5 5
      vertex -6.05 -4.7 5
    endloop
  endfacet
  facet normal -0 0 1
    outer loop
      vertex 8.2 12.95 5
      vertex 12.95 8.2 5
      vertex 13 15 5
    endloop
  endfacet
  facet normal -0 0 1
    outer loop
      vertex 8.2 9.5 5
      vertex 9.5 8.2 5
      vertex 8.2 12.95 5
    endloop
  endfacet
  facet normal 0 0 1
    outer loop
      vertex 12.95 8.2 5
      vertex 8.2 12.95 5
      vertex 9.5 8.2 5
    endloop
  endfacet
  facet normal -0 0 1
    outer loop
      vertex 4.075 15 5
      vertex 8.2 12.95 5
      vertex 13 15 5
    endloop
  endfacet
  facet normal 0 0 1
    outer loop
      vertex 8.2 12.95 5
      vertex 4.075 15 5
      vertex 4.075 12.95 5
    endloop
  endfacet
  facet normal 0 0 1
    outer loop
      vertex 13 15 5
      vertex 15 13 5
      vertex 14.8478 13.7654 5
    endloop
  endfacet
  facet normal 0 0 1
    outer loop
      vertex 13 15 5
      vertex 14.8478 13.7654 5
      vertex 14.4142 14.4142 5
    endloop
  endfacet
  facet normal 0 0 1
    outer loop
      vertex 13 15 5
      vertex 14.4142 14.4142 5
      vertex 13.7654 14.8478 5
    endloop
  endfacet
  facet normal 0 0 1
    outer loop
      vertex 15 13 5
      vertex 13 15 5
      vertex 12.95 8.2 5
    endloop
  endfacet
  facet normal 0 0 1
    outer loop
      vertex 15 13 5
      vertex 12.95 8.2 5
      vertex 15 4.075 5
    endloop
  endfacet
  facet normal 0 0 1
    outer loop
      vertex 15 4.075 5
      vertex 12.95 8.2 5
      vertex 12.95 4.075 5
    endloop
  endfacet
  facet normal 0 0 1
    outer loop
      vertex 8.2 9.5 5
      vertex 6.05 4.7 5
      vertex 9.5 8.2 5
    endloop
  endfacet
  facet normal 0 0 1
    outer loop
      vertex 3.16099 1.825 5
      vertex 6.05 4.7 5
      vertex 4.7 6.05 5
    endloop
  endfacet
  facet normal -0 0 1
    outer loop
      vertex 4.7 6.05 5
      vertex 6.05 4.7 5
      vertex 8.2 9.5 5
    endloop
  endfacet
  facet normal 0 0 1
    outer loop
      vertex 6.05 -4.7 5
      vertex 8.2 -9.5 5
      vertex 9.5 -8.2 5
    endloop
  endfacet
  facet normal 0 0 1
    outer loop
      vertex 6.05 -4.7 5
      vertex 4.7 -6.05 5
      vertex 8.2 -9.5 5
    endloop
  endfacet
  facet normal 0 0 1
    outer loop
      vertex 6.05 4.7 5
      vertex 3.65 0 5
      vertex 6.05 -4.7 5
    endloop
  endfacet
  facet normal -0 0 1
    outer loop
      vertex 3.16099 -1.825 5
      vertex 6.05 -4.7 5
      vertex 3.65 0 5
    endloop
  endfacet
  facet normal 0 0 1
    outer loop
      vertex 6.05 4.7 5
      vertex 3.16099 1.825 5
      vertex 3.65 0 5
    endloop
  endfacet
  facet normal 0 0 1
    outer loop
      vertex 4.7 6.05 5
      vertex 1.825 3.16099 5
      vertex 3.16099 1.825 5
    endloop
  endfacet
  facet normal 0 0 1
    outer loop
      vertex 4.7 6.05 5
      vertex 0 3.65 5
      vertex 1.825 3.16099 5
    endloop
  endfacet
  facet normal -0 0 1
    outer loop
      vertex -4.7 6.05 5
      vertex 0 3.65 5
      vertex 4.7 6.05 5
    endloop
  endfacet
  facet normal -0 0 1
    outer loop
      vertex -6.05 4.7 5
      vertex -3.16099 1.825 5
      vertex -4.7 6.05 5
    endloop
  endfacet
  facet normal 0 0 1
    outer loop
      vertex -1.825 3.16099 5
      vertex -4.7 6.05 5
      vertex -3.16099 1.825 5
    endloop
  endfacet
  facet normal 0 0 1
    outer loop
      vertex 0 3.65 5
      vertex -4.7 6.05 5
      vertex -1.825 3.16099 5
    endloop
  endfacet
  facet normal -0 0 1
    outer loop
      vertex 12.95 -8.2 5
      vertex 15 -13 5
      vertex 15 -4.075 5
    endloop
  endfacet
  facet normal 0 -0 1
    outer loop
      vertex 13 -15 5
      vertex 15 -13 5
      vertex 12.95 -8.2 5
    endloop
  endfacet
  facet normal 0 0 1
    outer loop
      vertex 15 -13 5
      vertex 13 -15 5
      vertex 14.8478 -13.7654 5
    endloop
  endfacet
  facet normal 0 0 1
    outer loop
      vertex 14.8478 -13.7654 5
      vertex 13 -15 5
      vertex 14.4142 -14.4142 5
    endloop
  endfacet
  facet normal 0 0 1
    outer loop
      vertex 12.95 -8.2 5
      vertex 15 -4.075 5
      vertex 12.95 -4.075 5
    endloop
  endfacet
  facet normal 0 0 1
    outer loop
      vertex 14.4142 -14.4142 5
      vertex 13 -15 5
      vertex 13.7654 -14.8478 5
    endloop
  endfacet
  facet normal 0 0 1
    outer loop
      vertex 8.2 -12.95 5
      vertex 12.95 -8.2 5
      vertex 9.5 -8.2 5
    endloop
  endfacet
  facet normal 0 0 1
    outer loop
      vertex 8.2 -12.95 5
      vertex 9.5 -8.2 5
      vertex 8.2 -9.5 5
    endloop
  endfacet
  facet normal 0 0 1
    outer loop
      vertex 12.95 -8.2 5
      vertex 8.2 -12.95 5
      vertex 13 -15 5
    endloop
  endfacet
  facet normal 0 0 1
    outer loop
      vertex 4.075 -15 5
      vertex 8.2 -12.95 5
      vertex 4.075 -12.95 5
    endloop
  endfacet
  facet normal 0 0 1
    outer loop
      vertex 8.2 -12.95 5
      vertex 4.075 -15 5
      vertex 13 -15 5
    endloop
  endfacet
  facet normal 0 0 1
    outer loop
      vertex 6.05 -4.7 5
      vertex 3.16099 -1.825 5
      vertex 4.7 -6.05 5
    endloop
  endfacet
  facet normal -0 0 1
    outer loop
      vertex 1.825 -3.16099 5
      vertex 4.7 -6.05 5
      vertex 3.16099 -1.825 5
    endloop
  endfacet
  facet normal -0 0 1
    outer loop
      vertex 0 -3.65 5
      vertex 4.7 -6.05 5
      vertex 1.825 -3.16099 5
    endloop
  endfacet
  facet normal 0 0 1
    outer loop
      vertex -4.7 -6.05 5
      vertex 0 -3.65 5
      vertex -1.825 -3.16099 5
    endloop
  endfacet
  facet normal 0 0 1
    outer loop
      vertex 0 -3.65 5
      vertex -4.7 -6.05 5
      vertex 4.7 -6.05 5
    endloop
  endfacet
  facet normal 0 0 1
    outer loop
      vertex -3.16099 -1.825 5
      vertex -4.7 -6.05 5
      vertex -1.825 -3.16099 5
    endloop
  endfacet
  facet normal 0 0 1
    outer loop
      vertex -6.05 -4.7 5
      vertex -3.16099 -1.825 5
      vertex -3.65 0 5
    endloop
  endfacet
  facet normal 0 0 1
    outer loop
      vertex -3.16099 1.825 5
      vertex -6.05 4.7 5
      vertex -3.65 0 5
    endloop
  endfacet
  facet normal 0 0 1
    outer loop
      vertex -6.05 -4.7 5
      vertex -3.65 0 5
      vertex -6.05 4.7 5
    endloop
  endfacet
  facet normal 0 0 1
    outer loop
      vertex -8.2 9.5 5
      vertex -6.05 4.7 5
      vertex -4.7 6.05 5
    endloop
  endfacet
  facet normal 0 0 1
    outer loop
      vertex -8.2 9.5 5
      vertex -9.5 8.2 5
      vertex -6.05 4.7 5
    endloop
  endfacet
  facet normal -0 0 1
    outer loop
      vertex -8.2 -12.95 5
      vertex -4.075 -15 5
      vertex -4.075 -12.95 5
    endloop
  endfacet
  facet normal 0 0 1
    outer loop
      vertex -8.2 -9.5 5
      vertex -9.5 -8.2 5
      vertex -8.2 -12.95 5
    endloop
  endfacet
  facet normal -0 0 1
    outer loop
      vertex -12.95 -8.2 5
      vertex -8.2 -12.95 5
      vertex -9.5 -8.2 5
    endloop
  endfacet
  facet normal 0 0 1
    outer loop
      vertex -8.2 -12.95 5
      vertex -13 -15 5
      vertex -4.075 -15 5
    endloop
  endfacet
  facet normal 0 0 1
    outer loop
      vertex -13 -15 5
      vertex -8.2 -12.95 5
      vertex -12.95 -8.2 5
    endloop
  endfacet
  facet normal -0 0 1
    outer loop
      vertex -15 -4.075 5
      vertex -12.95 -8.2 5
      vertex -12.95 -4.075 5
    endloop
  endfacet
  facet normal 0 0 1
    outer loop
      vertex -12.95 -8.2 5
      vertex -15 -13 5
      vertex -13 -15 5
    endloop
  endfacet
  facet normal 0 0 1
    outer loop
      vertex -13 -15 5
      vertex -15 -13 5
      vertex -13.7654 -14.8478 5
    endloop
  endfacet
  facet normal 0 0 1
    outer loop
      vertex -13.7654 -14.8478 5
      vertex -15 -13 5
      vertex -14.4142 -14.4142 5
    endloop
  endfacet
  facet normal 0 0 1
    outer loop
      vertex -12.95 -8.2 5
      vertex -15 -4.075 5
      vertex -15 -13 5
    endloop
  endfacet
  facet normal 0 0 1
    outer loop
      vertex -14.4142 -14.4142 5
      vertex -15 -13 5
      vertex -14.8478 -13.7654 5
    endloop
  endfacet
  facet normal 0 0 0
    outer loop
      vertex 13 15 5
      vertex 1.83697e-15 15 5
      vertex 4.075 15 5
    endloop
  endfacet
  facet normal 0 0 0
    outer loop
      vertex -15 4.075 5
      vertex -15 13 5
      vertex -15 3.33067e-15 5
    endloop
  endfacet
  facet normal 0 0 0
    outer loop
      vertex 15 -4.075 5
      vertex 15 -13 5
      vertex 15 -3.33067e-15 5
    endloop
  endfacet
  facet normal 0.83147 -0.55557 0
    outer loop
      vertex 14.4142 -14.4142 5
      vertex 14.8478 -13.7654 0
      vertex 14.8478 -13.7654 5
    endloop
  endfacet
  facet normal 0.83147 -0.55557 0
    outer loop
      vertex 14.8478 -13.7654 0
      vertex 14.4142 -14.4142 5
      vertex 14.4142 -14.4142 0
    endloop
  endfacet
  facet normal 0.83147 0.55557 0
    outer loop
      vertex 14.8478 13.7654 5
      vertex 14.4142 14.4142 0
      vertex 14.4142 14.4142 5
    endloop
  endfacet
  facet normal 0.83147 0.55557 0
    outer loop
      vertex 14.4142 14.4142 0
      vertex 14.8478 13.7654 5
      vertex 14.8478 13.7654 0
    endloop
  endfacet
  facet normal 0 1 -0
    outer loop
      vertex -4.075 15 0
      vertex -13 15 5
      vertex -4.075 15 5
    endloop
  endfacet
  facet normal 0 1 0
    outer loop
      vertex -13 15 5
      vertex -4.075 15 0
      vertex -13 15 0
    endloop
  endfacet
  facet normal 0 1 -0
    outer loop
      vertex 13 15 0
      vertex 1.83697e-15 15 5
      vertex 13 15 5
    endloop
  endfacet
  facet normal 0 1 0
    outer loop
      vertex 1.83697e-15 15 5
      vertex 13 15 0
      vertex 1.83697e-15 15 0
    endloop
  endfacet
  facet normal -0.195091 0.980785 0
    outer loop
      vertex -13 15 0
      vertex -13.7654 14.8478 5
      vertex -13 15 5
    endloop
  endfacet
  facet normal -0.195091 0.980785 0
    outer loop
      vertex -13.7654 14.8478 5
      vertex -13 15 0
      vertex -13.7654 14.8478 0
    endloop
  endfacet
  facet normal 0.55557 -0.83147 0
    outer loop
      vertex 13.7654 -14.8478 0
      vertex 14.4142 -14.4142 5
      vertex 13.7654 -14.8478 5
    endloop
  endfacet
  facet normal 0.55557 -0.83147 0
    outer loop
      vertex 14.4142 -14.4142 5
      vertex 13.7654 -14.8478 0
      vertex 14.4142 -14.4142 0
    endloop
  endfacet
  facet normal 0.195091 -0.980785 0
    outer loop
      vertex 13 -15 0
      vertex 13.7654 -14.8478 5
      vertex 13 -15 5
    endloop
  endfacet
  facet normal 0.195091 -0.980785 0
    outer loop
      vertex 13.7654 -14.8478 5
      vertex 13 -15 0
      vertex 13.7654 -14.8478 0
    endloop
  endfacet
  facet normal -0.55557 -0.83147 0
    outer loop
      vertex -14.4142 -14.4142 0
      vertex -13.7654 -14.8478 5
      vertex -14.4142 -14.4142 5
    endloop
  endfacet
  facet normal -0.55557 -0.83147 -0
    outer loop
      vertex -13.7654 -14.8478 5
      vertex -14.4142 -14.4142 0
      vertex -13.7654 -14.8478 0
    endloop
  endfacet
  facet normal -0.195091 -0.980785 0
    outer loop
      vertex -13.7654 -14.8478 0
      vertex -13 -15 5
      vertex -13.7654 -14.8478 5
    endloop
  endfacet
  facet normal -0.195091 -0.980785 -0
    outer loop
      vertex -13 -15 5
      vertex -13.7654 -14.8478 0
      vertex -13 -15 0
    endloop
  endfacet
  facet normal -0.980785 0.195091 0
    outer loop
      vertex -15 13 0
      vertex -14.8478 13.7654 5
      vertex -14.8478 13.7654 0
    endloop
  endfacet
  facet normal -0.980785 0.195091 0
    outer loop
      vertex -14.8478 13.7654 5
      vertex -15 13 0
      vertex -15 13 5
    endloop
  endfacet
  facet normal -0.83147 0.55557 0
    outer loop
      vertex -14.8478 13.7654 0
      vertex -14.4142 14.4142 5
      vertex -14.4142 14.4142 0
    endloop
  endfacet
  facet normal -0.83147 0.55557 0
    outer loop
      vertex -14.4142 14.4142 5
      vertex -14.8478 13.7654 0
      vertex -14.8478 13.7654 5
    endloop
  endfacet
  facet normal 0.980785 0.195091 0
    outer loop
      vertex 15 13 5
      vertex 14.8478 13.7654 0
      vertex 14.8478 13.7654 5
    endloop
  endfacet
  facet normal 0.980785 0.195091 0
    outer loop
      vertex 14.8478 13.7654 0
      vertex 15 13 5
      vertex 15 13 0
    endloop
  endfacet
  facet normal 0.195091 0.980785 -0
    outer loop
      vertex 13.7654 14.8478 0
      vertex 13 15 5
      vertex 13.7654 14.8478 5
    endloop
  endfacet
  facet normal 0.195091 0.980785 0
    outer loop
      vertex 13 15 5
      vertex 13.7654 14.8478 0
      vertex 13 15 0
    endloop
  endfacet
  facet normal 0.55557 0.83147 -0
    outer loop
      vertex 14.4142 14.4142 0
      vertex 13.7654 14.8478 5
      vertex 14.4142 14.4142 5
    endloop
  endfacet
  facet normal 0.55557 0.83147 0
    outer loop
      vertex 13.7654 14.8478 5
      vertex 14.4142 14.4142 0
      vertex 13.7654 14.8478 0
    endloop
  endfacet
  facet normal -0.83147 -0.55557 0
    outer loop
      vertex -14.4142 -14.4142 0
      vertex -14.8478 -13.7654 5
      vertex -14.8478 -13.7654 0
    endloop
  endfacet
  facet normal -0.83147 -0.55557 0
    outer loop
      vertex -14.8478 -13.7654 5
      vertex -14.4142 -14.4142 0
      vertex -14.4142 -14.4142 5
    endloop
  endfacet
  facet normal -0.965926 -0.258819 0
    outer loop
      vertex 3.65 0 0
      vertex 3.16099 1.825 5
      vertex 3.16099 1.825 0
    endloop
  endfacet
  facet normal -0.965926 -0.258819 0
    outer loop
      vertex 3.16099 1.825 5
      vertex 3.65 0 0
      vertex 3.65 0 5
    endloop
  endfacet
  facet normal 0.965926 -0.258819 0
    outer loop
      vertex -3.65 0 5
      vertex -3.16099 1.825 0
      vertex -3.16099 1.825 5
    endloop
  endfacet
  facet normal 0.965926 -0.258819 0
    outer loop
      vertex -3.16099 1.825 0
      vertex -3.65 0 5
      vertex -3.65 0 0
    endloop
  endfacet
  facet normal 0.258819 -0.965926 0
    outer loop
      vertex -1.825 3.16099 0
      vertex 0 3.65 5
      vertex -1.825 3.16099 5
    endloop
  endfacet
  facet normal 0.258819 -0.965926 0
    outer loop
      vertex 0 3.65 5
      vertex -1.825 3.16099 0
      vertex 0 3.65 0
    endloop
  endfacet
  facet normal -0.707107 -0.707107 0
    outer loop
      vertex 3.16099 1.825 0
      vertex 1.825 3.16099 5
      vertex 1.825 3.16099 0
    endloop
  endfacet
  facet normal -0.707107 -0.707107 0
    outer loop
      vertex 1.825 3.16099 5
      vertex 3.16099 1.825 0
      vertex 3.16099 1.825 5
    endloop
  endfacet
  facet normal 0.707107 -0.707107 0
    outer loop
      vertex -3.16099 1.825 5
      vertex -1.825 3.16099 0
      vertex -1.825 3.16099 5
    endloop
  endfacet
  facet normal 0.707107 -0.707107 0
    outer loop
      vertex -1.825 3.16099 0
      vertex -3.16099 1.825 5
      vertex -3.16099 1.825 0
    endloop
  endfacet
  facet normal -0.258819 0.965926 0
    outer loop
      vertex 1.825 -3.16099 0
      vertex 0 -3.65 5
      vertex 1.825 -3.16099 5
    endloop
  endfacet
  facet normal -0.258819 0.965926 0
    outer loop
      vertex 0 -3.65 5
      vertex 1.825 -3.16099 0
      vertex 0 -3.65 0
    endloop
  endfacet
  facet normal -0.707107 0.707107 0
    outer loop
      vertex 1.825 -3.16099 0
      vertex 3.16099 -1.825 5
      vertex 3.16099 -1.825 0
    endloop
  endfacet
  facet normal -0.707107 0.707107 0
    outer loop
      vertex 3.16099 -1.825 5
      vertex 1.825 -3.16099 0
      vertex 1.825 -3.16099 5
    endloop
  endfacet
  facet normal -0.258819 -0.965926 0
    outer loop
      vertex 0 3.65 0
      vertex 1.825 3.16099 5
      vertex 0 3.65 5
    endloop
  endfacet
  facet normal -0.258819 -0.965926 -0
    outer loop
      vertex 1.825 3.16099 5
      vertex 0 3.65 0
      vertex 1.825 3.16099 0
    endloop
  endfacet
  facet normal -0.965926 0.258819 0
    outer loop
      vertex 3.16099 -1.825 0
      vertex 3.65 0 5
      vertex 3.65 0 0
    endloop
  endfacet
  facet normal -0.965926 0.258819 0
    outer loop
      vertex 3.65 0 5
      vertex 3.16099 -1.825 0
      vertex 3.16099 -1.825 5
    endloop
  endfacet
  facet normal 0.965926 0.258819 0
    outer loop
      vertex -3.16099 -1.825 5
      vertex -3.65 0 0
      vertex -3.65 0 5
    endloop
  endfacet
  facet normal 0.965926 0.258819 0
    outer loop
      vertex -3.65 0 0
      vertex -3.16099 -1.825 5
      vertex -3.16099 -1.825 0
    endloop
  endfacet
  facet normal 0.258819 0.965926 -0
    outer loop
      vertex 0 -3.65 0
      vertex -1.825 -3.16099 5
      vertex 0 -3.65 5
    endloop
  endfacet
  facet normal 0.258819 0.965926 0
    outer loop
      vertex -1.825 -3.16099 5
      vertex 0 -3.65 0
      vertex -1.825 -3.16099 0
    endloop
  endfacet
  facet normal 0.707107 0.707107 0
    outer loop
      vertex -1.825 -3.16099 5
      vertex -3.16099 -1.825 0
      vertex -3.16099 -1.825 5
    endloop
  endfacet
  facet normal 0.707107 0.707107 0
    outer loop
      vertex -3.16099 -1.825 0
      vertex -1.825 -3.16099 5
      vertex -1.825 -3.16099 0
    endloop
  endfacet
endsolid OpenSCAD_Model
